<?xml version="1.0" standalone="no"?>
<!DOCTYPE svg PUBLIC "-//W3C//DTD SVG 20010904//EN"
 "http://www.w3.org/TR/2001/REC-SVG-20010904/DTD/svg10.dtd">
<svg version="1.0" xmlns="http://www.w3.org/2000/svg"
 width="1024.000000pt" height="1024.000000pt" viewBox="0 0 1024.000000 1024.000000"
 preserveAspectRatio="xMidYMid meet">
<metadata>
Created by potrace 1.14, written by Peter Selinger 2001-2017
</metadata>
<g transform="translate(0.000000,1024.000000) scale(0.100000,-0.100000)"
fill="#000000" stroke="none">
<path d="M0 7869 c0 -2107 2 -2370 15 -2359 8 7 15 19 15 27 0 7 7 16 15 19 8
4 15 18 15 33 0 15 6 35 14 46 7 11 25 90 40 175 15 85 31 174 36 197 6 23 10
58 10 77 0 20 4 36 9 36 4 0 12 82 16 182 4 100 8 189 10 197 12 68 15 151 20
566 5 468 11 615 25 615 4 0 13 53 19 118 6 64 16 142 23 172 6 30 14 96 19
145 14 158 21 205 30 205 5 0 9 21 9 48 0 26 7 90 16 142 9 52 19 124 24 160
9 77 29 158 41 165 29 19 49 -135 75 -592 4 -68 10 -123 14 -123 9 0 28 -134
41 -294 8 -104 8 -131 -3 -137 -8 -6 -9 -9 -1 -9 7 0 11 -25 12 -72 0 -40 3
-84 7 -98 4 -14 8 -45 9 -70 3 -46 20 -207 29 -270 3 -19 8 -84 11 -145 7
-152 22 -255 55 -365 6 -22 8 -21 14 18 8 44 26 58 26 20 1 -110 24 -327 45
-436 14 -72 27 -157 29 -186 1 -30 7 -61 13 -68 6 -7 13 -30 17 -51 4 -21 16
-54 27 -73 11 -20 17 -39 14 -43 -2 -5 7 -6 20 -3 19 3 25 0 25 -14 1 -11 7
-30 15 -44 14 -24 14 -24 15 25 l1 50 13 -45 c33 -120 68 -190 124 -248 86
-88 164 -140 276 -184 93 -37 107 -40 176 -35 117 7 192 50 234 135 14 26 21
31 40 26 24 -6 44 8 73 52 8 13 23 24 33 24 25 0 36 16 63 100 25 75 37 173
57 475 9 138 20 185 44 185 50 0 53 43 61 875 7 589 21 1030 35 1054 6 11 9
-13 10 -72 0 -57 4 -86 10 -82 6 4 8 11 5 16 -4 5 -3 15 2 22 4 6 13 95 20
197 7 102 15 221 17 265 12 170 49 385 66 385 9 0 14 -14 25 -69 l7 -34 24 28
c13 15 21 31 18 36 -3 5 2 6 10 3 9 -3 16 -17 16 -31 0 -14 7 -37 15 -51 18
-34 45 -117 45 -141 0 -9 12 -28 26 -42 14 -13 24 -19 23 -14 -2 6 1 33 5 60
11 69 22 38 29 -90 7 -106 18 -555 20 -842 2 -144 5 -175 18 -188 15 -15 17
-12 22 42 3 32 6 182 7 333 1 343 16 710 28 722 6 6 12 -16 17 -59 11 -99 21
-1108 15 -1523 -8 -576 10 -916 58 -1115 l17 -70 6 295 c8 364 8 374 13 369 3
-2 10 -112 16 -244 15 -338 27 -451 66 -605 44 -171 43 -170 56 -170 6 0 20 8
31 17 18 17 19 16 14 -52 -4 -60 -1 -77 21 -123 38 -79 60 -92 66 -38 4 41 12
41 44 -3 17 -23 33 -38 36 -32 3 5 6 37 7 71 1 53 -2 65 -25 89 -33 35 -33 41
4 41 44 0 57 -29 68 -158 12 -129 31 -175 76 -180 15 -2 38 4 52 13 20 13 24
23 24 70 0 29 4 57 10 60 10 6 12 -8 14 -98 1 -58 12 -67 86 -67 77 0 120 14
163 55 28 26 46 35 72 35 40 0 40 1 21 39 -21 40 -6 56 49 55 42 -1 46 1 41
20 -15 61 -17 105 -6 126 l12 22 29 -33 c16 -18 29 -41 29 -51 0 -11 5 -40 12
-66 l11 -46 12 33 c6 19 12 72 14 119 1 46 6 94 11 106 7 18 9 15 20 -24 6
-24 9 -62 6 -84 -8 -44 12 -185 25 -187 20 -3 25 -5 38 -13 12 -8 13 2 8 57
-3 37 -3 68 1 71 15 9 33 -11 50 -57 11 -27 22 -43 28 -39 6 4 20 39 32 77 41
137 48 489 36 1765 -5 571 -4 852 5 1030 12 227 26 364 31 300 l2 -25 7 25 c5
14 15 39 23 55 9 17 19 55 23 85 9 76 33 157 51 175 20 19 48 19 65 -1 7 -9
16 -60 20 -122 4 -59 13 -170 20 -247 15 -162 18 -562 7 -780 -4 -82 -9 -431
-10 -775 -3 -616 -2 -626 19 -690 22 -67 39 -168 34 -207 -1 -14 3 -23 11 -23
10 0 9 -3 -2 -10 -10 -6 -11 -10 -2 -10 6 0 12 -7 12 -15 0 -8 7 -15 16 -15
14 0 14 -3 4 -15 -11 -13 -8 -16 19 -21 39 -8 58 -29 42 -48 -9 -10 -8 -15 4
-20 8 -3 15 -12 15 -19 0 -8 10 -25 23 -39 12 -13 39 -50 60 -81 20 -31 42
-57 47 -57 13 0 13 2 -4 47 -27 73 -40 128 -38 161 1 22 -2 31 -9 26 -8 -5 -9
-2 -3 9 9 16 1 209 -11 256 -3 13 -20 37 -37 53 -26 24 -28 28 -10 28 19 0 20
6 18 130 -1 122 -2 131 -24 145 -43 31 -51 65 -57 232 -21 603 -24 1513 -4
1513 5 0 10 -55 11 -122 1 -68 3 -152 5 -188 1 -36 5 -330 7 -655 4 -484 7
-598 19 -635 10 -29 17 -40 21 -30 3 8 7 335 9 725 3 680 6 766 28 821 5 14
10 40 10 57 1 18 7 -11 14 -63 20 -144 35 -583 36 -995 0 -203 4 -401 10 -440
5 -38 13 -96 18 -127 7 -57 21 -89 21 -52 1 18 1 18 14 2 8 -11 15 -65 20
-146 7 -143 28 -326 50 -447 36 -199 100 -435 117 -435 5 0 6 -6 3 -14 -3 -8
-1 -16 3 -19 6 -4 7 78 5 191 -2 108 -2 195 1 192 12 -12 37 -136 37 -183 0
-93 30 -308 47 -346 13 -26 19 -31 21 -18 2 9 8 17 13 17 16 0 10 148 -8 183
-11 22 -16 60 -17 122 -1 69 -6 96 -19 117 -15 22 -16 31 -7 48 16 29 9 148
-19 369 -16 119 -21 193 -16 237 10 100 50 134 120 102 33 -15 28 -28 -15 -42
-47 -15 -80 -66 -80 -125 0 -56 27 -254 41 -298 7 -22 23 -40 50 -55 21 -12
39 -25 39 -29 0 -11 -24 -27 -52 -34 -14 -4 -28 -15 -31 -24 -7 -28 2 -102 18
-146 27 -76 56 -250 62 -375 5 -107 8 -128 26 -147 39 -43 55 -31 62 50 4 39
5 92 3 117 -3 42 -1 45 22 45 25 0 25 -1 27 -95 4 -135 5 -137 53 -137 22 0
45 6 52 14 6 8 13 48 15 91 6 106 10 122 33 122 26 0 34 -49 25 -143 -9 -101
-5 -103 123 -87 153 20 172 32 172 113 0 29 5 59 10 67 7 11 10 2 10 -32 0
-50 18 -78 47 -73 78 16 73 11 74 68 1 86 15 102 21 24 3 -38 8 -71 11 -74 9
-8 37 23 37 41 0 10 6 13 15 10 10 -4 15 0 15 14 0 12 4 24 10 27 6 3 10 21
10 38 0 24 3 28 10 17 8 -12 10 -12 16 3 3 9 4 24 1 32 -4 8 -2 17 3 20 6 4
10 41 10 83 0 73 7 189 31 492 6 74 14 187 19 249 5 63 10 322 11 575 2 254 6
533 10 621 4 88 9 210 12 270 11 258 38 718 47 815 20 194 22 211 37 226 17
16 23 17 43 4 13 -8 15 -55 15 -322 0 -172 -4 -401 -8 -508 -4 -107 -8 -458
-8 -780 0 -456 3 -620 15 -744 9 -87 21 -165 26 -172 8 -8 8 -14 1 -19 -12 -7
-6 -72 14 -159 13 -57 26 -76 52 -76 6 0 15 -4 18 -10 3 -5 0 -7 -8 -4 -27 10
-28 -15 -3 -59 14 -24 23 -47 18 -51 -4 -4 2 -14 13 -22 11 -8 20 -18 20 -22
0 -3 17 -22 38 -41 21 -19 34 -37 28 -40 -5 -4 3 -18 19 -33 l29 -27 -5 92
c-2 51 -5 143 -7 204 -1 61 -5 109 -8 107 -3 -2 -5 16 -3 39 2 23 -5 132 -16
242 -23 248 -34 481 -23 488 5 3 23 -114 41 -261 18 -147 37 -269 42 -270 6
-2 7 -8 4 -13 -3 -5 -2 -29 2 -52 4 -23 9 -35 12 -27 3 8 16 -39 28 -105 64
-329 118 -506 206 -680 114 -221 282 -334 455 -304 80 14 113 39 113 85 0 40
7 42 35 10 16 -19 34 -26 83 -31 l62 -7 0 45 c0 53 13 66 40 42 22 -20 36 -14
44 20 6 22 61 111 77 125 5 4 17 62 34 170 3 19 5 141 4 270 -2 597 11 1694
26 2110 3 85 8 223 10 305 3 83 5 156 6 163 4 24 19 12 19 -15 0 -16 4 -34 9
-42 9 -14 11 -5 30 164 25 213 33 251 61 297 18 29 25 33 67 34 55 1 83 28 83
77 0 18 4 27 9 22 18 -20 34 -180 46 -450 7 -154 13 -265 14 -246 2 48 11 34
12 -20 2 -56 12 -73 20 -34 l7 30 1 -35 c1 -30 3 -32 12 -17 6 10 8 21 5 24
-3 4 -1 12 5 19 7 8 15 105 20 239 5 124 13 235 18 247 22 59 29 -34 35 -462
14 -961 25 -1350 43 -1430 15 -66 17 -72 24 -45 l7 30 1 -30 2 -30 10 25 c11
28 31 484 28 659 -4 310 7 929 16 919 2 -2 6 -48 10 -103 3 -54 8 -102 10
-105 5 -9 6 -647 1 -1105 -6 -642 11 -963 59 -1055 9 -17 13 -35 10 -40 -3 -5
-1 -11 5 -15 5 -3 10 -18 10 -33 0 -15 9 -52 20 -82 11 -30 20 -61 20 -69 0
-20 48 -118 61 -127 9 -5 10 36 6 152 -6 154 -6 157 8 99 8 -33 18 -78 21
-100 3 -22 9 -49 14 -60 5 -11 19 -57 31 -103 23 -88 49 -134 116 -204 98
-102 158 -126 274 -106 58 10 69 16 85 42 10 17 34 46 54 66 30 29 39 47 49
102 16 82 29 96 64 68 33 -26 53 -25 61 3 13 46 36 243 36 308 0 37 3 74 6 83
7 19 34 22 34 4 0 -7 10 -25 23 -39 18 -22 26 -25 38 -15 16 11 19 31 57 321
5 39 24 110 41 159 18 49 41 130 52 180 10 50 26 122 34 161 8 38 15 108 15
155 0 47 7 166 15 265 8 99 15 263 16 365 1 102 4 253 8 335 l6 150 8 -105 c4
-58 11 -325 17 -593 6 -303 14 -495 20 -507 8 -14 8 -20 0 -20 -6 0 -8 -5 -4
-12 4 -6 8 -41 8 -79 1 -38 7 -74 15 -83 7 -8 10 -20 6 -26 -3 -5 -1 -10 4
-10 13 0 15 -57 2 -65 -6 -3 -9 -13 -9 -23 1 -9 -2 -54 -6 -99 -9 -89 -4 -96
34 -63 38 33 51 21 42 -37 -4 -28 -1 -34 22 -43 15 -5 24 -15 21 -20 -4 -6 3
-37 14 -70 11 -33 23 -75 25 -94 6 -46 21 -71 43 -71 14 0 21 -13 31 -65 7
-35 19 -74 26 -86 8 -11 17 -41 21 -67 4 -25 13 -54 20 -64 11 -14 11 -9 4 33
-29 169 -37 219 -34 222 2 2 6 -6 10 -17 12 -39 25 -21 25 37 0 31 5 98 10
147 5 50 10 117 11 150 4 108 20 115 38 18 8 -38 17 -72 21 -78 4 -5 13 -40
19 -76 7 -36 17 -72 22 -80 5 -8 9 807 9 2034 l0 2047 -5120 0 -5120 0 0
-2371z m8377 678 c-2 -23 -3 -1 -3 48 0 50 1 68 3 42 2 -26 2 -67 0 -90z
m-3497 -737 c0 -12 -9 -30 -20 -42 -11 -12 -20 -28 -20 -35 0 -7 -5 -13 -11
-13 -12 0 -4 62 12 92 13 24 39 23 39 -2z m-840 -116 c0 -15 -7 -27 -17 -30
-33 -11 -84 -39 -105 -58 -28 -26 -45 -7 -28 33 8 21 27 37 59 51 25 12 53 25
61 30 21 11 30 3 30 -26z m956 -75 c-14 -29 -26 -63 -26 -76 0 -13 -4 -23 -10
-23 -5 0 -10 23 -10 51 0 43 5 55 30 81 17 17 33 28 37 25 3 -3 -6 -30 -21
-58z m1558 -15 c-4 -87 -17 -204 -24 -204 -15 0 -22 137 -10 195 13 64 36 71
34 9z m-1713 -151 c-9 -15 -10 -12 -11 18 0 20 3 39 8 43 11 12 14 -42 3 -61z
m2816 -270 c-3 -10 -5 -4 -5 12 0 17 2 24 5 18 2 -7 2 -21 0 -30z m3 -85 c-7
-19 -9 -15 -9 22 0 37 2 41 9 23 6 -14 6 -32 0 -45z m-2586 -27 c3 -4 -10 -25
-29 -46 -18 -21 -36 -54 -40 -74 -9 -54 -15 -71 -26 -71 -15 0 -10 109 7 145
19 41 74 70 88 46z m131 -21 c3 -5 -1 -10 -9 -10 -9 0 -16 5 -16 10 0 6 4 10
9 10 6 0 13 -4 16 -10z m-465 -46 c0 -21 -4 -33 -10 -29 -5 3 -10 19 -10 36 0
16 5 29 10 29 6 0 10 -16 10 -36z m-1973 -116 c-3 -8 -6 -5 -6 6 -1 11 2 17 5
13 3 -3 4 -12 1 -19z m-10 -205 c-2 -32 -3 -6 -3 57 0 63 1 89 3 58 2 -32 2
-84 0 -115z m1153 157 c0 -5 -4 -10 -10 -10 -5 0 -10 5 -10 10 0 6 5 10 10 10
6 0 10 -4 10 -10z m1300 -345 c0 -8 -4 -15 -10 -15 -5 0 -10 7 -10 15 0 8 5
15 10 15 6 0 10 -7 10 -15z m4800 -359 c0 -3 -4 -8 -10 -11 -5 -3 -10 -1 -10
4 0 6 5 11 10 11 6 0 10 -2 10 -4z m25 -16 c3 -5 1 -10 -4 -10 -6 0 -11 5 -11
10 0 6 2 10 4 10 3 0 8 -4 11 -10z m-4807 -158 c3 -16 -2 -22 -17 -22 -24 0
-35 15 -27 36 9 23 40 13 44 -14z m188 -274 c15 -92 35 -122 96 -140 29 -8 44
-8 64 1 31 14 42 8 24 -14 -17 -21 -128 -21 -158 1 -44 31 -55 72 -53 193 1
73 12 58 27 -41z m454 -160 c-1 -26 -3 -30 -10 -16 -6 9 -7 23 -4 32 9 25 14
19 14 -16z"/>
<path d="M2176 8077 c3 -10 9 -15 12 -12 3 3 0 11 -7 18 -10 9 -11 8 -5 -6z"/>
<path d="M2558 7563 c-6 -49 -7 -1075 -1 -1045 2 12 9 20 14 17 5 -4 9 31 9
84 0 66 -3 91 -12 91 -10 0 -9 3 1 9 10 7 12 47 10 205 -2 108 -1 196 4 196
12 0 8 78 -5 82 -9 3 -9 26 0 101 17 138 16 297 -2 297 -9 0 -16 -14 -18 -37z"/>
<path d="M8294 6778 c3 -13 5 -25 5 -28 1 -3 5 2 11 10 10 16 13 11 23 -35 3
-11 5 1 6 28 1 44 -1 47 -24 47 -20 0 -24 -4 -21 -22z"/>
<path d="M2560 6438 c0 -49 5 -47 14 5 4 23 3 37 -4 37 -5 0 -10 -19 -10 -42z"/>
<path d="M9806 6051 c-4 -7 -5 -15 -2 -18 9 -9 19 4 14 18 -4 11 -6 11 -12 0z"/>
<path d="M821 5880 c0 -8 4 -22 9 -30 12 -18 12 -2 0 25 -6 13 -9 15 -9 5z"/>
<path d="M4616 5682 c-3 -6 -1 -14 5 -17 14 -9 20 -2 10 14 -6 8 -11 9 -15 3z"/>
<path d="M4465 5492 c-43 -7 -51 -14 -30 -22 15 -6 16 -9 4 -9 -22 -1 -20 -33
3 -39 23 -6 23 -13 -2 -45 -11 -14 -20 -30 -20 -35 0 -23 57 -75 106 -98 77
-35 284 -60 284 -34 0 6 14 10 30 10 68 0 18 71 -105 151 -33 21 -69 46 -79
56 -13 12 -16 13 -11 3 6 -11 3 -10 -12 3 -11 9 -30 17 -42 17 -12 0 -31 9
-42 19 -22 20 -52 29 -84 23z m82 -48 c-3 -3 -12 -4 -19 -1 -8 3 -5 6 6 6 11
1 17 -2 13 -5z"/>
<path d="M6285 5353 c-16 -9 -38 -23 -48 -31 -16 -14 -16 -16 3 -29 24 -17
275 -62 291 -52 16 9 -56 76 -113 105 -53 27 -89 29 -133 7z"/>
<path d="M6600 5261 c0 -5 16 -18 35 -30 45 -26 45 -13 0 17 -19 12 -35 18
-35 13z"/>
<path d="M6445 5000 c-70 -17 -141 -63 -163 -105 -8 -17 -30 -473 -24 -498 2
-5 -3 -7 -10 -5 -9 3 -16 40 -22 111 -5 59 -12 107 -17 107 -14 0 -29 -37 -29
-73 0 -38 -19 -139 -55 -292 -66 -282 -76 -455 -80 -1410 -4 -785 -10 -933
-33 -739 -6 55 -9 130 -6 165 9 96 -12 387 -31 432 -15 36 -14 43 3 105 16 58
18 92 15 247 -3 124 -9 196 -20 232 -14 46 -14 61 -2 115 13 66 14 289 1 551
-7 136 -7 138 -27 123 -18 -13 -21 -30 -27 -188 -3 -95 -9 -200 -12 -233 -6
-57 -11 -326 -21 -1065 -6 -456 -16 -640 -35 -640 -17 0 -21 56 -26 335 -6
291 -18 497 -24 405 l-3 -45 -7 45 c-6 40 -7 36 -8 -30 0 -41 -6 -122 -13
-180 -6 -58 -14 -152 -18 -210 -4 -58 -9 -98 -11 -90 -7 28 -33 -482 -46 -910
-9 -269 -22 -252 -23 30 -1 217 -12 492 -20 485 -3 -3 -8 -27 -12 -53 -6 -44
-7 -42 -9 28 -2 41 -4 80 -5 85 -2 6 -4 44 -5 85 -2 105 -18 62 -20 -55 -3
-182 -15 -190 -23 -15 -13 311 -22 545 -22 593 0 26 -3 47 -7 47 -5 0 -9 17
-9 38 -2 37 -11 -84 -24 -293 -6 -106 -9 -124 -20 -113 -3 3 -10 88 -15 189
-11 209 -18 279 -30 279 -14 0 -21 54 -29 240 -5 132 -12 193 -23 213 l-14 29
-12 -54 c-7 -29 -16 -73 -21 -98 -7 -31 -9 46 -9 250 1 264 -10 525 -29 695
-5 48 -8 55 -14 35 -4 -15 -7 -18 -8 -8 -1 9 -4 24 -8 34 -4 10 -2 15 3 11 6
-4 6 10 0 38 -6 26 -13 39 -18 32 -6 -10 -10 -4 -34 63 -10 28 -33 -19 -40
-82 -4 -33 -10 -56 -14 -51 -4 4 -13 64 -19 132 -7 68 -21 151 -31 184 -11 33
-17 64 -14 68 2 4 0 10 -6 14 -5 3 -10 15 -10 26 0 10 -4 19 -8 19 -18 0 -32
-26 -32 -58 0 -18 -5 -52 -10 -75 -6 -23 -14 -87 -18 -141 -8 -108 -23 -134
-41 -69 -16 57 -13 187 5 250 13 45 14 63 5 93 -6 21 -11 64 -11 96 0 52 -11
102 -49 234 -5 19 -15 55 -22 80 l-13 45 -7 -60 c-13 -108 -21 -155 -29 -155
-9 0 -30 125 -30 177 0 21 5 55 11 77 14 51 6 58 -78 63 -37 2 -71 9 -74 15
-3 5 -12 8 -20 7 -20 -4 -59 11 -59 22 0 5 -13 9 -30 9 -16 0 -30 -4 -30 -10
0 -5 -6 -10 -14 -10 -14 0 -97 -92 -129 -142 -12 -19 -16 -47 -16 -92 1 -35
-2 -69 -5 -74 -3 -6 -10 -63 -16 -128 -5 -64 -13 -121 -18 -126 -4 -4 -13 19
-20 51 -11 51 -15 58 -32 54 -29 -8 -44 -71 -45 -188 -1 -94 -16 -202 -36
-253 -5 -13 -9 -39 -9 -59 0 -56 -8 -36 -25 62 -39 230 -54 295 -67 292 -6 -1
-12 6 -13 16 -2 11 -6 21 -8 24 -12 11 -20 -146 -33 -566 -2 -101 -8 -189 -11
-195 -4 -6 -7 -100 -8 -211 -1 -183 -15 -855 -32 -1515 -9 -340 -16 -277 -39
335 -9 253 -19 503 -21 555 -2 52 -5 277 -7 500 -4 515 -4 519 -17 498 -12
-22 -17 -130 -29 -703 -5 -258 -12 -571 -15 -695 -3 -124 -10 -434 -15 -690
-11 -528 -17 -701 -27 -738 -6 -24 -7 -25 -14 -7 -4 11 -8 -71 -8 -183 -1
-133 -4 -201 -11 -197 -6 4 -11 200 -12 548 -1 298 -3 516 -5 485 -2 -32 -8
-58 -13 -58 -5 0 -11 -60 -13 -132 -1 -77 -4 -29 -5 112 -2 235 -9 421 -32
780 -6 91 -13 204 -15 252 -2 48 -8 104 -14 125 -6 21 -11 72 -12 113 -1 41
-8 107 -15 145 -11 62 -12 65 -13 27 -2 -81 -18 -33 -30 90 -7 68 -19 155 -27
194 -8 39 -12 79 -9 90 5 15 4 16 -3 4 -5 -8 -13 -33 -17 -55 -8 -39 -9 -37
-35 68 -23 96 -40 127 -40 75 0 -10 -4 -18 -9 -18 -10 0 -18 81 -27 263 -7
150 -36 286 -75 359 -5 10 -9 24 -9 31 0 7 -11 35 -25 63 -13 27 -33 75 -44
107 -11 31 -27 67 -35 79 -14 19 -14 14 -9 -58 5 -76 4 -81 -22 -112 -15 -18
-33 -32 -41 -32 -17 0 -17 -1 2 46 19 44 14 175 -6 200 -7 8 -9 14 -5 14 4 0
2 7 -5 15 -6 8 -18 47 -26 87 -15 73 -23 97 -51 153 -45 89 -75 141 -86 150
-7 6 -16 18 -20 29 -7 18 -8 18 -26 -3 -10 -11 -24 -48 -30 -81 -7 -33 -16
-60 -21 -60 -14 0 -30 95 -23 148 l6 50 -52 11 c-29 6 -63 11 -76 11 -30 0
-75 -20 -76 -34 -1 -6 -3 -20 -4 -31 -12 -106 -19 -155 -36 -250 -12 -60 -26
-113 -32 -117 -24 -15 -29 7 -23 96 4 57 3 86 -3 77 -7 -11 -10 -9 -13 10 -4
23 -5 23 -13 4 -5 -11 -12 -22 -15 -25 -4 -3 -10 -32 -14 -65 -3 -33 -10 -85
-15 -115 -7 -42 -5 -62 5 -82 8 -15 14 -39 14 -54 0 -50 -24 -194 -32 -194 -4
0 -9 30 -10 68 -1 37 -3 83 -4 102 -1 19 -3 55 -4 80 l-2 45 -13 -30 c-11 -24
-14 -26 -15 -10 -1 11 -4 14 -7 8 -2 -7 -13 -13 -23 -13 -27 0 -58 -106 -69
-235 -5 -59 -11 -108 -13 -111 -2 -2 -10 31 -17 74 -7 42 -17 90 -22 106 -5
16 -9 39 -9 52 0 16 -5 22 -14 18 -9 -3 -18 7 -26 28 -7 18 -12 36 -12 39 1 4
-10 17 -23 29 -14 13 -25 33 -26 44 0 21 -1 21 -9 1 -8 -19 -9 -19 -9 3 -1 13
-5 20 -11 17 -6 -3 -10 -1 -10 6 0 8 -3 9 -9 3 -5 -5 -12 -268 -16 -604 -4
-342 -11 -611 -16 -634 -6 -22 -9 -107 -6 -195 2 -86 2 -127 -2 -91 l-5 65 -6
-100 c-6 -98 -6 -96 -9 55 -1 85 -6 178 -11 205 -7 49 -7 48 -10 -30 -4 -158
-18 -130 -19 40 -2 403 -16 997 -22 965 -4 -20 -7 14 -7 80 0 78 3 107 9 90 8
-23 8 -23 5 5 -11 83 -30 164 -37 159 -5 -3 -9 4 -9 16 0 24 -32 92 -65 135
-12 17 -49 43 -81 59 -100 48 -118 58 -154 93 -44 42 -191 116 -213 107 -10
-3 -17 -11 -17 -16 0 -6 -6 -5 -15 2 -20 16 -19 8 5 -44 97 -214 156 -387 171
-504 6 -50 14 -92 18 -92 3 0 6 -15 7 -32 0 -18 4 -79 8 -135 6 -76 6 -103 -3
-103 -6 0 -14 8 -17 18 -3 9 -9 26 -14 37 -16 40 -40 128 -40 146 0 11 -4 19
-10 19 -5 0 -10 8 -10 19 0 17 -65 169 -95 221 -8 14 -20 36 -27 50 -7 14 -18
30 -24 35 -6 6 -14 21 -18 35 -3 14 -19 34 -35 45 -20 13 -35 35 -46 70 -8 28
-33 72 -54 98 -50 60 -119 127 -134 129 -21 2 -32 5 -47 11 -96 36 -177 2
-200 -86 -7 -23 -20 -60 -30 -82 -10 -22 -26 -57 -34 -77 -22 -49 -61 -262
-76 -410 -12 -116 -23 -144 -36 -92 -7 26 -7 26 -21 -12 -9 -22 -20 -76 -25
-121 -9 -70 -13 -83 -29 -83 -12 0 -19 9 -21 28 -3 15 -5 2 -5 -28 -1 -47 -11
-158 -30 -317 -6 -54 -19 -55 -28 -3 -10 57 -21 57 -40 3 -10 -27 -25 -70 -35
-98 -29 -78 -29 -80 -35 -250 -4 -88 -12 -199 -19 -247 -9 -60 -10 -101 -4
-130 5 -24 12 -56 14 -73 5 -29 -16 -240 -37 -375 -5 -36 -7 -81 -5 -100 16
-107 16 -146 2 -253 -9 -65 -17 -141 -18 -170 -3 -130 -16 187 -17 453 -1 162
-5 327 -10 365 -4 39 -6 102 -4 140 5 103 5 105 -9 173 -13 61 -28 74 -28 25
0 -13 -4 -22 -9 -19 -8 5 -21 -129 -18 -194 0 -14 -5 -108 -11 -209 -7 -102
-12 -205 -13 -230 0 -35 -2 -41 -9 -26 -6 15 -9 7 -10 -30 -1 -83 -12 -230
-18 -235 -2 -3 -1 56 2 131 5 81 4 139 -2 143 -11 6 -22 -313 -23 -654 0 -271
-9 -471 -19 -465 -12 7 -19 90 -25 285 -3 102 -10 302 -15 445 -6 143 -10 308
-10 366 0 83 -3 109 -15 119 -10 9 -16 34 -17 84 -1 45 -3 56 -5 31 -7 -71
-18 -56 -16 23 1 61 0 68 -6 34 -10 -56 -27 -74 -41 -41 -9 21 -10 18 -6 -18
2 -24 0 -43 -5 -43 -5 0 -9 17 -10 38 -2 119 -11 244 -18 283 -5 26 -9 -448
-10 -1163 -1 -1168 0 -1208 17 -1208 11 0 26 -8 36 -18 14 -16 15 -32 10 -103
-6 -83 -7 -85 -33 -84 l-26 0 -3 -152 -3 -153 5121 0 5120 0 0 2448 c0 1891
-3 2451 -12 2460 -21 21 -58 14 -68 -14 -10 -25 -30 -25 -30 0 0 8 -11 21 -25
30 -30 20 -110 16 -129 -5 -7 -8 -18 -63 -25 -122 -12 -106 -48 -240 -62 -232
-4 3 -10 19 -13 37 -11 58 -21 64 -50 35 -20 -20 -26 -36 -26 -70 0 -25 -6
-82 -14 -128 -8 -46 -17 -124 -20 -174 -13 -189 -18 -235 -26 -235 -4 0 -11
35 -15 78 -4 42 -13 106 -20 142 -7 35 -12 67 -9 71 2 4 -5 5 -16 2 -21 -6
-40 -56 -40 -106 0 -16 -4 -37 -10 -47 -15 -28 -16 -218 -1 -275 12 -44 11
-56 -3 -99 -18 -52 -29 -128 -46 -304 -10 -104 -24 -147 -41 -120 -5 7 -9 36
-9 63 -2 91 -23 200 -40 200 -8 0 -16 10 -18 23 -2 12 -7 22 -12 22 -11 0 -30
-90 -30 -143 0 -23 -5 -49 -10 -57 -8 -13 -10 -12 -10 3 0 9 -4 17 -8 17 -8 0
-29 225 -36 385 -6 150 -7 162 -16 135 -9 -29 -13 33 -12 230 0 92 -2 112 -7
75 l-8 -50 -1 49 c-1 27 -4 47 -6 45 -2 -2 -7 -362 -11 -799 -3 -437 -10 -808
-15 -825 -5 -16 -11 -81 -14 -144 -4 -63 -8 -117 -11 -119 -3 -3 -6 80 -7 184
-1 209 -14 157 -18 -76 -1 -69 -5 -150 -10 -180 -7 -54 -7 -54 -10 30 -1 47
-6 96 -10 110 -10 30 -10 26 -19 -290 l-6 -225 -7 305 c-4 168 -13 519 -19
780 -5 261 -12 493 -14 515 -1 22 -3 55 -4 73 -1 19 -5 31 -11 27 -9 -5 -16
70 -11 111 1 6 -6 17 -14 24 -18 15 -17 19 -20 -90 -3 -103 -13 -232 -20 -238
-3 -3 -5 24 -6 59 0 35 -4 87 -8 114 l-7 50 -7 -42 c-4 -24 -11 -43 -16 -43
-5 0 -14 33 -21 73 -6 39 -18 90 -25 112 -26 77 -45 205 -46 299 0 53 2 100 6
106 3 5 -1 20 -9 32 -9 12 -16 35 -16 50 0 15 -4 29 -9 32 -24 16 -23 -182 3
-324 18 -98 21 -220 6 -220 -6 0 -16 12 -23 28 -11 26 -25 42 -39 42 -3 0 -18
-26 -33 -57 -20 -43 -28 -54 -35 -43 -10 18 -37 197 -45 300 -16 196 -77 393
-134 437 -21 15 -33 3 -40 -43 -10 -63 -28 -51 -46 33 -9 43 -25 104 -36 136
-13 38 -17 70 -13 96 4 27 2 42 -10 54 -9 8 -21 28 -26 43 -10 26 -11 26 -24
8 -8 -10 -12 -22 -9 -27 3 -4 2 -20 -2 -35 -9 -35 -25 -11 -25 38 0 55 -17 68
-100 77 -92 9 -99 5 -101 -62 -1 -65 -13 -128 -25 -132 -7 -2 -16 21 -23 57
-12 60 -32 79 -46 43 -16 -43 -25 -251 -24 -541 1 -219 -2 -317 -10 -325 -6
-6 -11 -9 -11 -6 -19 302 -31 396 -50 384 -12 -7 -29 -116 -40 -256 -10 -131
-25 -629 -21 -739 2 -79 -8 -156 -19 -144 -4 5 -11 118 -15 251 -4 133 -8 249
-9 257 -11 76 -35 -101 -40 -304 -2 -74 -9 -337 -15 -583 -5 -246 -12 -451
-15 -455 -2 -4 -9 -93 -15 -197 -20 -343 -30 -385 -46 -190 -9 105 -19 133
-33 94 -6 -14 -13 -52 -17 -85 -4 -32 -11 -66 -16 -75 -4 -9 -13 -47 -19 -85
-6 -37 -15 -73 -19 -79 -5 -5 -13 -23 -18 -39 l-9 -29 -22 42 c-12 23 -22 54
-23 69 -1 21 -3 17 -9 -13 -4 -22 -10 -179 -14 -350 -4 -195 -12 -330 -20
-365 l-13 -55 -6 45 c-3 25 -11 189 -17 365 -6 176 -17 361 -25 410 -10 69
-13 79 -13 40 2 -132 -2 -348 -6 -344 -3 3 -10 130 -16 284 -12 319 -13 334
-29 395 -6 25 -15 79 -20 120 l-10 75 4 -85 4 -85 -13 85 c-7 47 -14 73 -15
58 -2 -51 -21 -41 -21 12 0 58 -14 59 -25 3 -7 -35 -8 -36 -15 -13 -8 33 -19
-183 -22 -425 -1 -172 -2 -180 -8 -90 -4 55 -9 271 -11 480 -2 224 -5 341 -9
285 l-6 -95 -2 85 c-1 47 -9 123 -18 170 -8 47 -16 109 -17 137 -4 77 -23 88
-31 19 -4 -31 -11 -54 -16 -51 -4 3 -11 32 -15 65 -4 33 -11 58 -15 55 -5 -3
-10 2 -12 12 -2 9 -1 -93 0 -228 2 -134 2 -242 -1 -239 -3 3 -10 196 -16 430
-12 448 -25 749 -42 940 -13 146 -16 163 -34 157 -13 -6 -18 11 -54 188 -8 41
-10 16 -9 -130 1 -238 0 -275 -10 -275 -5 0 -16 64 -26 143 -23 189 -48 311
-68 330 -21 21 -25 44 -38 197 -6 68 -14 140 -19 160 -5 19 -12 66 -15 104 -4
39 -13 74 -22 83 -13 13 -16 12 -32 -7 l-17 -22 -40 50 c-62 78 -140 110 -220
92z m-3317 -432 c20 -20 13 -55 -14 -77 -50 -39 -99 -20 -92 36 5 42 77 70
106 41z m1762 -109 c9 -21 10 -39 4 -57 -11 -31 -41 -41 -50 -17 -7 18 15 105
26 105 4 0 13 -14 20 -31z m1405 -101 c29 -13 31 -21 9 -39 -45 -37 -64 -134
-65 -327 -1 -109 -3 -123 -19 -132 -32 -17 -40 18 -40 167 0 139 14 236 44
306 16 39 30 44 71 25z m-1921 -90 c8 -32 7 -68 -1 -68 -5 0 -16 14 -26 31
-13 24 -15 35 -6 45 16 20 26 17 33 -8z m391 -105 c-3 -29 -11 -55 -16 -58
-18 -12 -15 117 4 150 11 19 12 18 15 -10 2 -16 1 -53 -3 -82z m4562 15 c-2
-13 -4 -3 -4 22 0 25 2 35 4 23 2 -13 2 -33 0 -45z m-4567 -234 c0 -13 -4 -24
-10 -24 -5 0 -10 14 -10 31 0 17 4 28 10 24 6 -3 10 -17 10 -31z m-3998 -54
c-7 -55 -24 -71 -30 -28 -5 30 17 103 28 92 5 -5 6 -34 2 -64z m4424 -777 c0
-439 -3 -843 -6 -898 -7 -114 -10 51 -15 1005 -2 412 0 610 8 643 6 26 11 47
12 47 1 0 2 -359 1 -797z m-5049 -685 c-2 -13 -4 -5 -4 17 -1 22 1 32 4 23 2
-10 2 -28 0 -40z m9120 -85 c-2 -16 -4 -3 -4 27 0 30 2 43 4 28 2 -16 2 -40 0
-55z m-8980 -45 c-3 -8 -6 -5 -6 6 -1 11 2 17 5 13 3 -3 4 -12 1 -19z m8990
-50 c-3 -8 -6 -5 -6 6 -1 11 2 17 5 13 3 -3 4 -12 1 -19z m-8866 -597 c-2 -36
-6 -49 -12 -40 -10 17 -12 104 -2 139 7 24 8 23 13 -10 3 -19 3 -59 1 -89z
m5236 -93 c-3 -7 -5 -2 -5 12 0 14 2 19 5 13 2 -7 2 -19 0 -25z m-2870 -35 c5
-15 -54 -47 -62 -33 -3 5 -1 19 5 30 12 23 50 24 57 3z m-2552 -1139 c28 -26
28 -26 22 -126 -4 -54 -3 -98 1 -96 88 43 95 50 63 67 -18 10 -46 69 -37 78 2
3 22 -5 44 -16 45 -23 65 -62 50 -101 -18 -48 -91 -95 -133 -84 -47 12 -55 37
-55 176 0 71 4 128 9 128 4 0 21 -12 36 -26z"/>
<path d="M5245 4980 c-2 -4 2 -37 10 -75 8 -37 13 -71 11 -74 -5 -7 18 -215
30 -278 4 -21 6 -40 5 -42 -1 -2 8 -9 21 -15 13 -7 22 -19 20 -30 -2 -9 2 -33
9 -53 8 -26 14 -32 20 -22 5 8 9 23 9 34 0 18 31 55 45 55 3 0 5 -26 5 -57 0
-66 13 -98 30 -73 6 8 9 30 7 48 -1 17 1 32 5 32 18 0 7 32 -13 37 -16 4 -18
8 -7 14 16 11 90 33 101 31 13 -3 7 46 -8 62 -8 8 -15 24 -15 36 0 11 -6 33
-14 48 -7 15 -16 43 -20 63 -4 21 -13 42 -21 49 -23 19 -18 30 12 30 27 0 27
0 6 15 -11 8 -53 18 -92 21 -112 11 -94 24 32 24 116 0 177 12 177 35 0 32
-40 62 -97 73 -65 13 -262 22 -268 12z"/>
<path d="M3345 4943 c-4 -16 -10 -36 -16 -45 -12 -24 -12 -28 7 -28 11 0 14
-5 10 -17 -4 -10 -4 -14 0 -10 10 9 34 -48 34 -78 0 -37 49 -237 68 -277 13
-30 23 -38 45 -38 15 0 28 -6 28 -12 1 -7 4 3 8 22 l6 35 89 10 c86 10 90 11
97 37 6 24 -8 99 -29 148 -3 8 -6 20 -7 26 0 6 -13 27 -28 47 -15 20 -27 40
-27 46 0 19 -25 26 -109 31 -63 4 -86 9 -89 20 -3 8 -2 12 2 9 12 -11 131 17
131 31 0 16 -63 37 -126 43 -22 2 -45 9 -51 15 -20 20 -37 14 -43 -15z"/>
<path d="M7106 4924 c-8 -22 3 -42 22 -38 59 11 72 15 72 24 0 20 -87 33 -94
14z"/>
<path d="M5231 4784 c0 -11 3 -14 6 -6 3 7 2 16 -1 19 -3 4 -6 -2 -5 -13z"/>
<path d="M8917 4768 c-6 -37 -4 -58 13 -176 12 -82 25 -107 41 -81 5 8 9 9 9
3 0 -6 10 -16 23 -22 21 -11 21 -12 -8 -11 -16 1 -36 1 -43 0 -9 -1 -11 -32
-7 -137 2 -75 9 -142 14 -148 6 -7 6 -17 1 -26 -10 -16 -3 -59 12 -75 6 -6 8
3 7 25 -5 74 1 221 10 216 4 -3 9 -29 9 -58 2 -75 23 -188 36 -188 6 0 4 -5
-4 -10 -9 -6 -10 -10 -3 -10 6 0 14 -15 16 -32 3 -18 3 21 1 87 -2 90 -1 113
7 90 14 -42 42 -175 43 -207 1 -14 4 -29 8 -33 9 -9 17 30 16 75 -1 19 3 82 7
140 7 75 11 96 16 75 4 -16 5 21 2 84 -2 63 -6 118 -9 123 -3 4 -22 8 -42 9
-38 1 -36 3 9 13 25 5 26 9 19 40 -4 19 -16 47 -26 63 -11 15 -28 45 -38 66
-11 20 -23 37 -27 37 -4 0 -7 8 -6 18 0 10 -10 32 -23 50 -31 41 -39 28 -41
-63 l-1 -70 -12 47 c-6 25 -14 50 -18 53 -4 4 -4 20 -1 36 3 16 3 29 0 29 -2
0 -7 -15 -10 -32z m50 -560 c-3 -7 -5 -2 -5 12 0 14 2 19 5 13 2 -7 2 -19 0
-25z"/>
<path d="M7126 4704 c-12 -32 13 -200 30 -197 5 1 8 -17 5 -40 -3 -39 -3 -40
14 -24 10 10 14 25 11 34 -8 19 9 33 40 33 18 0 22 7 27 46 4 37 0 53 -19 83
-31 47 -55 72 -65 66 -4 -3 -10 -1 -14 5 -9 15 -22 12 -29 -6z"/>
<path d="M33 4583 c9 -2 25 -2 35 0 9 3 1 5 -18 5 -19 0 -27 -2 -17 -5z"/>
<path d="M10 4540 c0 -15 6 -20 28 -19 16 1 20 3 10 6 -10 2 -18 11 -18 19 0
8 -4 14 -10 14 -5 0 -10 -9 -10 -20z"/>
<path d="M0 4430 l0 -50 34 0 c31 0 34 3 45 44 6 25 11 47 11 50 0 3 -20 6
-45 6 l-45 0 0 -50z"/>
<path d="M7318 4472 c-15 -3 -18 -16 -18 -87 0 -74 2 -86 20 -95 25 -13 27 -8
38 80 11 94 4 112 -40 102z"/>
<path d="M5511 4423 c0 -27 4 -57 9 -68 10 -24 11 -23 16 39 3 27 9 55 15 63
9 10 6 13 -15 13 -24 0 -26 -3 -25 -47z"/>
<path d="M5305 4418 c3 -24 10 -63 15 -88 l9 -45 -4 55 c-3 30 -5 70 -5 88 0
17 -5 32 -10 32 -6 0 -8 -17 -5 -42z"/>
<path d="M7181 4414 c0 -11 3 -14 6 -6 3 7 2 16 -1 19 -3 4 -6 -2 -5 -13z"/>
<path d="M637 4043 c-4 -3 -7 -18 -6 -32 1 -26 1 -25 10 3 9 31 7 41 -4 29z"/>
<path d="M9106 3925 c-9 -26 -7 -32 5 -12 6 10 9 21 6 23 -2 3 -7 -2 -11 -11z"/>
<path d="M3932 3860 c0 -14 2 -19 5 -12 2 6 2 18 0 25 -3 6 -5 1 -5 -13z"/>
<path d="M5809 3528 c0 -29 -3 -72 -5 -95 -3 -27 -1 -43 5 -43 7 0 11 35 11
95 0 52 -2 95 -5 95 -3 0 -5 -24 -6 -52z"/>
<path d="M5808 3056 c-5 -60 -7 -152 -7 -205 1 -93 2 -94 10 -41 5 30 8 122 7
205 l-3 150 -7 -109z"/>
<path d="M7111 3104 c0 -11 3 -14 6 -6 3 7 2 16 -1 19 -3 4 -6 -2 -5 -13z"/>
<path d="M9252 2900 c0 -19 2 -27 5 -17 2 9 2 25 0 35 -3 9 -5 1 -5 -18z"/>
<path d="M7242 2830 c0 -19 2 -27 5 -17 2 9 2 25 0 35 -3 9 -5 1 -5 -18z"/>
<path d="M5781 2784 c0 -11 3 -14 6 -6 3 7 2 16 -1 19 -3 4 -6 -2 -5 -13z"/>
<path d="M42 2700 c0 -14 2 -19 5 -12 2 6 2 18 0 25 -3 6 -5 1 -5 -13z"/>
<path d="M112 2700 c0 -14 2 -19 5 -12 2 6 2 18 0 25 -3 6 -5 1 -5 -13z"/>
<path d="M9203 2625 c0 -22 2 -30 4 -17 2 12 2 30 0 40 -3 9 -5 -1 -4 -23z"/>
<path d="M7403 2280 c0 -25 2 -35 4 -22 2 12 2 32 0 45 -2 12 -4 2 -4 -23z"/>
<path d="M5611 2094 c0 -11 3 -14 6 -6 3 7 2 16 -1 19 -3 4 -6 -2 -5 -13z"/>
<path d="M3831 1054 c0 -11 3 -14 6 -6 3 7 2 16 -1 19 -3 4 -6 -2 -5 -13z"/>
</g>
</svg>
